# xmcd CD database file
#
# Track frame offsets:
#	150
#	14070
#	26335
#	44737
#	63242
#	76945
#	93150
#	107222
#	118420
#	137495
#	149322
#
# Disc length: 2264 seconds
#
# Revision: 1
# Processed by: cddbd v1.5.1PL0 Copyright (c) Steve Scherf et al.
# Submitted via: CDex 1.51
#
DISCID=9608d60b
DTITLE=Sanna and Colored Leaf - River Of My Mind
DYEAR=1993
DGENRE=Country
TTITLE0=Dancing On Water
TTITLE1=Dreamer
TTITLE2=River Of My Mind
TTITLE3=Goin' Gone
TTITLE4=Purple
TTITLE5=Carolina Star
TTITLE6=Smell The Roses
TTITLE7=Wanna Be Your Hero
TTITLE8=Love At The Five And Dime
TTITLE9=Hungry Me
TTITLE10=Cryin' Last Night
EXTD=YEAR: 1993
EXTT0=
EXTT1=
EXTT2=
EXTT3=
EXTT4=
EXTT5=
EXTT6=
EXTT7=
EXTT8=
EXTT9=
EXTT10=
PLAYORDER=
